<mxfile host="Electron" modified="2024-02-21T23:23:52.377Z" agent="Mozilla/5.0 (Macintosh; Intel Mac OS X 10_15_7) AppleWebKit/537.36 (KHTML, like Gecko) draw.io/23.0.2 Chrome/120.0.6099.109 Electron/28.1.0 Safari/537.36" etag="GqVFxIDaXcXJxeY3Cf-5" version="23.0.2" type="device">
  <diagram name="Single node" id="x4TNpdqoHl5asDUS4WaB">
    <mxGraphModel dx="1120" dy="854" grid="1" gridSize="10" guides="1" tooltips="1" connect="1" arrows="1" fold="1" page="1" pageScale="1" pageWidth="850" pageHeight="1100" math="0" shadow="0">
      <root>
        <mxCell id="0" />
        <mxCell id="1" parent="0" />
        <mxCell id="OX_zlI_0chY2JoXTOn6b-12" style="edgeStyle=orthogonalEdgeStyle;rounded=0;orthogonalLoop=1;jettySize=auto;html=1;" parent="1" source="OX_zlI_0chY2JoXTOn6b-1" target="OX_zlI_0chY2JoXTOn6b-6" edge="1">
          <mxGeometry relative="1" as="geometry" />
        </mxCell>
        <mxCell id="OX_zlI_0chY2JoXTOn6b-1" value="WAX&lt;br&gt;Blockchain&lt;br&gt;Network" style="ellipse;shape=cloud;whiteSpace=wrap;html=1;" parent="1" vertex="1">
          <mxGeometry x="160" y="420" width="120" height="80" as="geometry" />
        </mxCell>
        <mxCell id="OX_zlI_0chY2JoXTOn6b-2" value="AWS Account" style="points=[[0,0],[0.25,0],[0.5,0],[0.75,0],[1,0],[1,0.25],[1,0.5],[1,0.75],[1,1],[0.75,1],[0.5,1],[0.25,1],[0,1],[0,0.75],[0,0.5],[0,0.25]];outlineConnect=0;gradientColor=none;html=1;whiteSpace=wrap;fontSize=12;fontStyle=0;container=1;pointerEvents=0;collapsible=0;recursiveResize=0;shape=mxgraph.aws4.group;grIcon=mxgraph.aws4.group_aws_cloud_alt;strokeColor=#232F3E;fillColor=none;verticalAlign=top;align=left;spacingLeft=30;fontColor=#232F3E;dashed=0;" parent="1" vertex="1">
          <mxGeometry x="330" y="310" width="940" height="420" as="geometry" />
        </mxCell>
        <mxCell id="OX_zlI_0chY2JoXTOn6b-7" value="Public subnet" style="points=[[0,0],[0.25,0],[0.5,0],[0.75,0],[1,0],[1,0.25],[1,0.5],[1,0.75],[1,1],[0.75,1],[0.5,1],[0.25,1],[0,1],[0,0.75],[0,0.5],[0,0.25]];outlineConnect=0;gradientColor=none;html=1;whiteSpace=wrap;fontSize=12;fontStyle=0;container=1;pointerEvents=0;collapsible=0;recursiveResize=0;shape=mxgraph.aws4.group;grIcon=mxgraph.aws4.group_security_group;grStroke=0;strokeColor=#7AA116;fillColor=#F2F6E8;verticalAlign=top;align=left;spacingLeft=30;fontColor=#248814;dashed=0;" parent="OX_zlI_0chY2JoXTOn6b-2" vertex="1">
          <mxGeometry x="200" y="70" width="380" height="270" as="geometry" />
        </mxCell>
        <mxCell id="OX_zlI_0chY2JoXTOn6b-13" style="edgeStyle=orthogonalEdgeStyle;rounded=0;orthogonalLoop=1;jettySize=auto;html=1;" parent="OX_zlI_0chY2JoXTOn6b-2" source="OX_zlI_0chY2JoXTOn6b-6" edge="1">
          <mxGeometry relative="1" as="geometry">
            <mxPoint x="260" y="150" as="targetPoint" />
          </mxGeometry>
        </mxCell>
        <mxCell id="OX_zlI_0chY2JoXTOn6b-6" value="Internet Gateway" style="sketch=0;outlineConnect=0;fontColor=#232F3E;gradientColor=none;fillColor=#8C4FFF;strokeColor=none;dashed=0;verticalLabelPosition=bottom;verticalAlign=top;align=center;html=1;fontSize=12;fontStyle=0;aspect=fixed;pointerEvents=1;shape=mxgraph.aws4.internet_gateway;" parent="OX_zlI_0chY2JoXTOn6b-2" vertex="1">
          <mxGeometry x="90" y="111" width="78" height="78" as="geometry" />
        </mxCell>
        <mxCell id="OX_zlI_0chY2JoXTOn6b-11" value="Self-built and run DApps" style="rounded=0;whiteSpace=wrap;html=1;" parent="OX_zlI_0chY2JoXTOn6b-2" vertex="1">
          <mxGeometry x="640" y="160" width="120" height="60" as="geometry" />
        </mxCell>
        <mxCell id="OX_zlI_0chY2JoXTOn6b-21" value="&lt;font style=&quot;font-size: 14px;&quot; color=&quot;#ffffff&quot;&gt;1&lt;/font&gt;" style="ellipse;whiteSpace=wrap;html=1;strokeColor=#FF8800;fillColor=#FF8800;" parent="OX_zlI_0chY2JoXTOn6b-2" vertex="1">
          <mxGeometry x="114" y="76" width="30" height="30" as="geometry" />
        </mxCell>
        <mxCell id="IH9-5eQ_SOQHSwX34WHm-17" value="Default VPC" style="points=[[0,0],[0.25,0],[0.5,0],[0.75,0],[1,0],[1,0.25],[1,0.5],[1,0.75],[1,1],[0.75,1],[0.5,1],[0.25,1],[0,1],[0,0.75],[0,0.5],[0,0.25]];outlineConnect=0;gradientColor=none;html=1;whiteSpace=wrap;fontSize=12;fontStyle=0;container=0;pointerEvents=0;collapsible=0;recursiveResize=0;shape=mxgraph.aws4.group;grIcon=mxgraph.aws4.group_vpc;strokeColor=#248814;fillColor=none;verticalAlign=top;align=left;spacingLeft=30;fontColor=#AAB7B8;dashed=0;" parent="OX_zlI_0chY2JoXTOn6b-2" vertex="1">
          <mxGeometry x="50" y="35" width="750" height="365" as="geometry" />
        </mxCell>
        <mxCell id="OX_zlI_0chY2JoXTOn6b-16" value="Amazon CloudWatch&lt;br&gt;WAX Logs" style="sketch=0;points=[[0,0,0],[0.25,0,0],[0.5,0,0],[0.75,0,0],[1,0,0],[0,1,0],[0.25,1,0],[0.5,1,0],[0.75,1,0],[1,1,0],[0,0.25,0],[0,0.5,0],[0,0.75,0],[1,0.25,0],[1,0.5,0],[1,0.75,0]];points=[[0,0,0],[0.25,0,0],[0.5,0,0],[0.75,0,0],[1,0,0],[0,1,0],[0.25,1,0],[0.5,1,0],[0.75,1,0],[1,1,0],[0,0.25,0],[0,0.5,0],[0,0.75,0],[1,0.25,0],[1,0.5,0],[1,0.75,0]];outlineConnect=0;fontColor=#232F3E;fillColor=#E7157B;strokeColor=#ffffff;dashed=0;verticalLabelPosition=bottom;verticalAlign=top;align=center;html=1;fontSize=12;fontStyle=0;aspect=fixed;shape=mxgraph.aws4.resourceIcon;resIcon=mxgraph.aws4.cloudwatch_2;" parent="OX_zlI_0chY2JoXTOn6b-2" vertex="1">
          <mxGeometry x="830" y="189" width="78" height="78" as="geometry" />
        </mxCell>
        <mxCell id="u0Xdru4RK1r6j2e7EFXk-1" value="EC2 instance contents for WAX node" style="points=[[0,0],[0.25,0],[0.5,0],[0.75,0],[1,0],[1,0.25],[1,0.5],[1,0.75],[1,1],[0.75,1],[0.5,1],[0.25,1],[0,1],[0,0.75],[0,0.5],[0,0.25]];outlineConnect=0;gradientColor=none;html=1;whiteSpace=wrap;fontSize=12;fontStyle=0;container=1;pointerEvents=0;collapsible=0;recursiveResize=0;shape=mxgraph.aws4.group;grIcon=mxgraph.aws4.group_ec2_instance_contents;strokeColor=#D86613;fillColor=none;verticalAlign=top;align=left;spacingLeft=30;fontColor=#D86613;dashed=0;" parent="OX_zlI_0chY2JoXTOn6b-2" vertex="1">
          <mxGeometry x="260" y="120" width="300" height="200" as="geometry" />
        </mxCell>
        <mxCell id="OX_zlI_0chY2JoXTOn6b-22" value="&lt;font style=&quot;font-size: 14px;&quot; color=&quot;#ffffff&quot;&gt;2&lt;/font&gt;" style="ellipse;whiteSpace=wrap;html=1;strokeColor=#FF8800;fillColor=#FF8800;" parent="u0Xdru4RK1r6j2e7EFXk-1" vertex="1">
          <mxGeometry x="-20" y="85" width="30" height="30" as="geometry" />
        </mxCell>
        <mxCell id="TfUQWKEs04p7YS6zo7lr-1" value="Telegraf Agent" style="sketch=0;outlineConnect=0;fontColor=#232F3E;gradientColor=none;fillColor=#ED7100;strokeColor=none;dashed=0;verticalLabelPosition=bottom;verticalAlign=top;align=center;html=1;fontSize=12;fontStyle=0;aspect=fixed;pointerEvents=1;shape=mxgraph.aws4.container_1;" vertex="1" parent="u0Xdru4RK1r6j2e7EFXk-1">
          <mxGeometry x="56" y="54.5" width="48" height="31" as="geometry" />
        </mxCell>
        <mxCell id="TfUQWKEs04p7YS6zo7lr-2" value="Victoria Metrics" style="sketch=0;outlineConnect=0;fontColor=#232F3E;gradientColor=none;fillColor=#ED7100;strokeColor=none;dashed=0;verticalLabelPosition=bottom;verticalAlign=top;align=center;html=1;fontSize=12;fontStyle=0;aspect=fixed;pointerEvents=1;shape=mxgraph.aws4.container_1;" vertex="1" parent="u0Xdru4RK1r6j2e7EFXk-1">
          <mxGeometry x="56" y="134.5" width="48" height="31" as="geometry" />
        </mxCell>
        <mxCell id="TfUQWKEs04p7YS6zo7lr-3" value="Grafana Dashboard" style="sketch=0;outlineConnect=0;fontColor=#232F3E;gradientColor=none;fillColor=#ED7100;strokeColor=none;dashed=0;verticalLabelPosition=bottom;verticalAlign=top;align=center;html=1;fontSize=12;fontStyle=0;aspect=fixed;pointerEvents=1;shape=mxgraph.aws4.container_1;" vertex="1" parent="u0Xdru4RK1r6j2e7EFXk-1">
          <mxGeometry x="190" y="134.5" width="48" height="31" as="geometry" />
        </mxCell>
        <mxCell id="TfUQWKEs04p7YS6zo7lr-4" value="WAX node &lt;br&gt;Docker Container" style="sketch=0;outlineConnect=0;fontColor=#232F3E;gradientColor=none;fillColor=#ED7100;strokeColor=none;dashed=0;verticalLabelPosition=bottom;verticalAlign=top;align=center;html=1;fontSize=12;fontStyle=0;aspect=fixed;pointerEvents=1;shape=mxgraph.aws4.container_1;" vertex="1" parent="u0Xdru4RK1r6j2e7EFXk-1">
          <mxGeometry x="190" y="54.5" width="48" height="31" as="geometry" />
        </mxCell>
        <mxCell id="u0Xdru4RK1r6j2e7EFXk-6" value="Administration and Development tools" style="rounded=0;whiteSpace=wrap;html=1;" parent="OX_zlI_0chY2JoXTOn6b-2" vertex="1">
          <mxGeometry x="640" y="240" width="120" height="60" as="geometry" />
        </mxCell>
        <mxCell id="u0Xdru4RK1r6j2e7EFXk-7" style="edgeStyle=orthogonalEdgeStyle;rounded=0;orthogonalLoop=1;jettySize=auto;html=1;entryX=0;entryY=0.5;entryDx=0;entryDy=0;" parent="OX_zlI_0chY2JoXTOn6b-2" source="TfUQWKEs04p7YS6zo7lr-4" target="OX_zlI_0chY2JoXTOn6b-11" edge="1">
          <mxGeometry relative="1" as="geometry">
            <mxPoint x="540" y="190" as="sourcePoint" />
          </mxGeometry>
        </mxCell>
        <mxCell id="u0Xdru4RK1r6j2e7EFXk-8" style="edgeStyle=orthogonalEdgeStyle;rounded=0;orthogonalLoop=1;jettySize=auto;html=1;entryX=0;entryY=0.5;entryDx=0;entryDy=0;" parent="OX_zlI_0chY2JoXTOn6b-2" source="TfUQWKEs04p7YS6zo7lr-3" target="u0Xdru4RK1r6j2e7EFXk-6" edge="1">
          <mxGeometry relative="1" as="geometry">
            <mxPoint x="540" y="270" as="sourcePoint" />
          </mxGeometry>
        </mxCell>
        <mxCell id="u0Xdru4RK1r6j2e7EFXk-9" style="edgeStyle=orthogonalEdgeStyle;rounded=0;orthogonalLoop=1;jettySize=auto;html=1;exitX=0.5;exitY=1;exitDx=0;exitDy=0;entryX=0;entryY=0.5;entryDx=0;entryDy=0;entryPerimeter=0;" parent="OX_zlI_0chY2JoXTOn6b-2" source="u0Xdru4RK1r6j2e7EFXk-1" target="OX_zlI_0chY2JoXTOn6b-16" edge="1">
          <mxGeometry relative="1" as="geometry">
            <Array as="points">
              <mxPoint x="410" y="380" />
              <mxPoint x="780" y="380" />
              <mxPoint x="780" y="228" />
            </Array>
          </mxGeometry>
        </mxCell>
        <mxCell id="OX_zlI_0chY2JoXTOn6b-25" value="&lt;font color=&quot;#ffffff&quot;&gt;&lt;span style=&quot;font-size: 14px;&quot;&gt;3&lt;/span&gt;&lt;/font&gt;" style="ellipse;whiteSpace=wrap;html=1;strokeColor=#FF8800;fillColor=#FF8800;" parent="OX_zlI_0chY2JoXTOn6b-2" vertex="1">
          <mxGeometry x="590" y="150" width="30" height="30" as="geometry" />
        </mxCell>
        <mxCell id="OX_zlI_0chY2JoXTOn6b-24" value="&lt;font style=&quot;font-size: 14px;&quot; color=&quot;#ffffff&quot;&gt;4&lt;/font&gt;" style="ellipse;whiteSpace=wrap;html=1;strokeColor=#FF8800;fillColor=#FF8800;" parent="OX_zlI_0chY2JoXTOn6b-2" vertex="1">
          <mxGeometry x="600" y="340" width="30" height="30" as="geometry" />
        </mxCell>
      </root>
    </mxGraphModel>
  </diagram>
</mxfile>
